{"title":"Star.Trek.2009.DVDRIP.H264-ZEKTORM","uid":5111658,"size":734702007,"categoryP":"video","categoryS":"movies","magnet":"?xt=urn:btih:36332e2ee9feb96b841aa09728b5bb6b40c6779a&amp;dn=Star.Trek.2009.DVDRIP.H264-ZEKTORM&amp;tr=udp%3A%2F%2Ftracker.openbittorrent.com%3A80&amp;tr=udp%3A%2F%2Fopen.demonii.com%3A1337&amp;tr=udp%3A%2F%2Ftracker.coppersurfer.tk%3A6969&amp;tr=udp%3A%2F%2Fexodus.desync.com%3A6969","seeders":0,"leechers":0,"uploader":"blowley","files":2,"time":1254851245,"description":"Title                            : Star Trek\nYear                             : 2009\nGenre                            : Action | Adventure | Sci-Fi\niMDB URL                         : http://www.imdb.com/title/tt0796366/\nAwards                           : 1 win &amp; 8 nominations\n\nComplete name                    : Star.Trek.2009.DVDRIP.H264-ZEKTORM.mp4\nFormat                           : MPEG-4\nFormat profile                   : Base Media\nCodec ID                         : isom\nFile size                        : 701 MiB\nDuration                         : 2h 4mn\nOverall bit rate                 : 788 Kbps\n\nVideo\nFormat                           : AVC\nFormat/Info                      : Advanced Video Codec\nFormat profile                   : &lt;a class=&quot;__cf_email__&quot; href=&quot;/cdn-cgi/l/email-protection&quot; data-cfemail=&quot;327a5b555a727e061c03&quot;&gt;[email&amp;#160;protected]&lt;/a&gt;&lt;script cf-hash='f9e31' type=&quot;text/javascript&quot;&gt;\n/* &lt;![CDATA[ */!function(){try{var t=&quot;currentScript&quot;in document?document.currentScript:function(){for(var t=document.getElementsByTagName(&quot;script&quot;),e=t.length;e--;)if(t[e].getAttribute(&quot;cf-hash&quot;))return t[e]}();if(t&amp;&amp;t.previousSibling){var e,r,n,i,c=t.previousSibling,a=c.getAttribute(&quot;data-cfemail&quot;);if(a){for(e=&quot;&quot;,r=parseInt(a.substr(0,2),16),n=2;a.length-n;n+=2)i=parseInt(a.substr(n,2),16)^r,e+=String.fromCharCode(i);e=document.createTextNode(e),c.parentNode.replaceChild(e,c)}}}catch(u){}}();/* ]]&gt; */&lt;/script&gt;\nFormat settings, CABAC           : Yes\nFormat settings, ReFrames        : 10 frames\nCodec ID                         : avc1\nCodec ID/Info                    : Advanced Video Coding\nDuration                         : 2h 4mn\nBit rate mode                    : Variable\nBit rate                         : 709 Kbps\nMaximum bit rate                 : 4421 Kbps\nWidth                            : 800 pixels\nHeight                           : 320 pixels\nDisplay aspect ratio             : 2.500\nFrame rate mode                  : Constant\nFrame rate                       : 23.976 fps\nResolution                       : 24 bits\nColorimetry                      : 4:2:0\nScan type                        : Progressive\nBits/(Pixel*Frame)               : 0.116\nStream size                      : 630 MiB (90%)\nTitle                            : Video\nWriting library                  : x264\n\nAudio\nFormat                           : AAC\nFormat/Info                      : Advanced Audio Codec\nFormat version                   : Version 4\nFormat profile                   : LC\nFormat settings, SBR             : Yes\nFormat settings, PS              : No\nCodec ID                         : 40\nDuration                         : 2h 4mn\nBit rate mode                    : Variable\nBit rate                         : 76.6 Kbps\nMaximum bit rate                 : 102 Kbps\nChannel(s)                       : 2 channels\nChannel positions                : L R\nSampling rate                    : 48.0 KHz\nResolution                       : 16 bits\nStream size                      : 68.0 MiB (10%)\nTitle                            : English\nLanguage                         : English\n","torrent":{"xt":"urn:btih:36332e2ee9feb96b841aa09728b5bb6b40c6779a","amp;dn":"Star.Trek.2009.DVDRIP.H264-ZEKTORM","amp;tr":["udp%3A%2F%2Ftracker.openbittorrent.com%3A80","udp%3A%2F%2Fopen.demonii.com%3A1337","udp%3A%2F%2Ftracker.coppersurfer.tk%3A6969","udp%3A%2F%2Fexodus.desync.com%3A6969"],"infoHash":"36332e2ee9feb96b841aa09728b5bb6b40c6779a","infoHashBuffer":{"type":"Buffer","data":[54,51,46,46,233,254,185,107,132,26,160,151,40,181,187,107,64,198,119,154]},"announce":[],"urlList":[]}}